<?xml version="1.0"?>
<svg xmlns="http://www.w3.org/2000/svg" width="48" height="64" viewBox="0 0 48 64" fill="none">
<path d="M9.70445 17.0376L9.70449 17.0376L9.70973 17.031L17.7415 6.93518C19.1197 5.41808 20.8175 4.41893 22.8459 4.073H25.1542C27.2224 4.42508 29.0774 5.44288 30.2423 6.91481L30.2435 6.91629L38.2903 17.031L38.2902 17.031L38.2956 17.0376C38.9342 17.8221 39.25 18.758 39.25 19.6904V45.0346C39.25 47.3667 37.3525 49.25 34.9474 49.25H13.0526C10.6475 49.25 8.75 47.3667 8.75 45.0346V19.6904C8.75 18.758 9.06578 17.8221 9.70445 17.0376Z" fill="white" stroke="#3B3B3E" stroke-width="1.5" stroke-miterlimit="10"/>
<path d="M24 10L24 1" stroke="#3B3B3E" stroke-width="1.5" stroke-miterlimit="10" stroke-linecap="round"/>
<path d="M28.6501 33.4145C27.9992 31.6787 26.2635 30.5939 24.0938 30.5939C23.0089 30.5939 22.1411 29.943 22.1411 28.8581C22.1411 27.9903 23.0089 27.1224 24.0938 27.1224C25.1786 27.1224 26.0465 27.7733 26.0465 28.8581C26.0465 29.5091 26.6974 30.16 27.5653 30.16C28.4332 30.16 29.0841 29.5091 29.0841 28.8581C29.0841 27.1224 27.7822 25.3867 25.8295 24.9527V24.3018C25.8295 23.6509 25.1786 23 24.3108 23C23.4429 23 22.792 23.6509 22.792 24.3018V24.9527C20.1884 25.6036 18.8865 27.9903 19.7544 30.16C20.1884 31.8957 21.9241 32.9805 24.0938 32.9805C25.1786 32.9805 26.0465 33.6314 26.0465 34.7163C26.0465 35.5842 25.1786 36.452 24.0938 36.452C23.0089 36.452 22.1411 35.8011 22.1411 34.7163C22.1411 34.0654 21.4902 33.4145 20.6223 33.4145C19.7544 33.4145 19.1035 34.0654 19.1035 34.7163C19.1035 36.452 20.4053 38.1878 22.358 38.6217V39.2726C22.358 39.9235 23.0089 40.5744 23.8768 40.5744C24.7447 40.5744 25.3956 39.9235 25.3956 39.2726V38.6217C27.9992 37.9708 29.301 35.5842 28.6501 33.4145Z" fill="#E54945"/>
<circle cx="24" cy="14" r="3.25" stroke="#3B3B3E" stroke-width="1.5"/>
</svg>
