<?xml version="1.0"?>
<svg xmlns="http://www.w3.org/2000/svg" width="854" height="24" viewBox="0 0 854 24" fill="none">
<path d="M26.5279 23.5017H34.0056L38.0294 0.498779H30.5516L29.0561 8.7243H22.5397L24.0353 0.498779H16.5576L12.5338 23.5017H20.0116L21.5071 14.8845H27.9878C28.0234 14.9201 26.5279 23.5017 26.5279 23.5017Z" fill="black" fill-opacity="0.5"/>
<path d="M42.2669 0.498501L39.988 13.2819C39.7743 14.2789 39.7031 15.2403 39.7031 16.1662C39.7031 22.9317 45.6141 23.9644 49.1749 23.9644C56.6527 23.9644 59.8574 21.4718 61.0325 14.7774L63.5251 0.462891H56.0473L53.9108 12.4985C53.2343 16.273 52.7358 18.2314 49.9583 18.2314C48.1423 18.2314 47.2521 17.27 47.2521 15.276C47.2521 14.4926 47.3589 13.5668 47.6082 12.3917L49.7803 0.498501H42.2669Z" fill="black" fill-opacity="0.5"/>
<path d="M103.157 23.5017H110.635L111.703 17.5908H115.228C121.745 17.5908 125.377 14.0655 125.377 7.62044C125.377 3.09819 122.243 0.498779 116.76 0.498779H107.181L103.157 23.5017ZM114.837 11.929H112.665L113.662 6.51658H115.691C117.329 6.51658 118.22 7.33558 118.22 8.86673C118.22 10.754 116.938 11.929 114.837 11.929Z" fill="black" fill-opacity="0.5"/>
<path d="M139.905 0C131.751 0 126.872 5.27002 126.872 14.1365C126.872 20.2967 130.754 24 137.234 24C145.389 24 150.267 18.73 150.267 9.8635C150.303 3.66765 146.457 0 139.905 0ZM137.733 18.0534C135.81 18.0534 134.671 16.6647 134.671 14.3145C134.671 13.4243 134.742 12.6766 134.92 11.7864C135.49 8.75965 136.451 6.0178 139.513 6.0178C141.436 6.0178 142.576 7.40653 142.576 9.75668C142.576 10.6469 142.504 11.3947 142.326 12.2849C141.757 15.2404 140.76 18.0534 137.733 18.0534Z" fill="black" fill-opacity="0.5"/>
<path d="M176.368 23.5017H183.846L186.801 6.65901H192.428L193.496 0.498779H174.339L173.27 6.65901H179.252L176.368 23.5017Z" fill="black" fill-opacity="0.5"/>
<path d="M163.941 9.0089C161.591 8.26112 160.594 7.94065 160.594 6.83679C160.594 6.08901 161.092 5.19882 162.517 5.19882C163.585 5.19882 164.44 5.80415 164.796 6.69436L171.419 4.91394C170.635 1.67359 167.858 0 163.051 0C154.006 0 153.294 6.05341 153.294 7.90504C153.294 11.6795 155.288 13.9585 159.632 15.1691C160.772 15.4896 162.089 15.8101 162.089 17.092C162.089 18.089 161.342 18.73 160.06 18.73C158.885 18.73 157.638 18.0534 157.211 16.8427L150.695 18.6231C151.407 22.0415 154.612 23.9644 159.668 23.9644C163.514 23.9644 169.959 22.9317 169.959 15.9881C169.923 12.4985 167.965 10.2196 163.941 9.0089Z" fill="black" fill-opacity="0.5"/>
<path d="M8.33234 23.5017L12.3917 0.498779H0V23.5017H8.33234Z" fill="black" fill-opacity="0.5"/>
<path d="M196.736 0.533936L192.712 23.5369H205.104V0.533936H196.736Z" fill="black" fill-opacity="0.5"/>
<path d="M72.4986 16.7362H78.8013L79.7983 10.932H73.5312L74.2434 6.65901H83.0387L84.1069 0.498779H67.8339L63.8102 23.5017H71.2879L72.4986 16.7362Z" fill="black" fill-opacity="0.5"/>
<path d="M92.119 16.7362H98.4573L99.4543 10.932H93.1873L93.8994 6.65901H102.695L103.763 0.498779H87.4899L83.4662 23.5017H90.9439L92.119 16.7362Z" fill="black" fill-opacity="0.5"/>
<path d="M298.79 2.47934C298.79 0.495868 296.906 0 295.418 0V0.297521C296.311 0.297521 297.005 0.595041 297.005 1.28926C297.005 1.68595 296.707 2.28099 295.815 2.28099C295.121 2.28099 293.633 1.8843 292.542 1.4876C291.253 0.991736 290.063 0.595041 289.071 0.595041C287.087 0.595041 285.699 2.08264 285.699 3.76859C285.699 5.2562 286.79 5.75207 287.187 5.95041L287.286 5.75207C287.087 5.55372 286.79 5.35537 286.79 4.76033C286.79 4.36364 287.187 3.66942 288.178 3.66942C289.071 3.66942 290.261 4.06612 291.848 4.56198C293.236 4.95868 294.724 5.2562 295.517 5.35537V8.42975L294.03 9.71901V9.81818L295.517 11.1074V15.3719C294.724 15.8678 293.831 15.9669 293.038 15.9669C291.55 15.9669 290.261 15.5702 289.17 14.3802L293.236 12.3967V5.55372L288.278 7.73554C288.674 6.44628 289.765 5.55372 290.856 4.95868L290.757 4.66116C287.782 5.45455 285.104 8.23141 285.104 11.6033C285.104 15.5702 288.377 18.5455 292.046 18.5455C296.013 18.5455 298.592 15.3719 298.592 12.0992H298.393C297.798 13.3884 296.906 14.5785 295.815 15.1736V11.1074L297.402 9.81818V9.71901L295.815 8.42975V5.35537C297.302 5.35537 298.79 4.36364 298.79 2.47934ZM290.162 13.3884L288.972 13.9835C288.278 13.0909 287.881 11.9008 287.881 10.2149C287.881 9.52066 287.881 8.72727 288.079 8.13223L290.162 7.23967V13.3884ZM300.674 15.6694L299.385 16.6612L299.583 16.8595L300.178 16.3636L302.36 18.3471L305.335 16.3636L305.236 16.1653L304.443 16.6612L303.451 15.6694V8.92562L304.245 8.33058L305.93 9.71901V15.7686C305.93 19.5372 305.137 20.1322 303.451 20.7273V21.0248C306.228 21.124 308.806 20.2314 308.806 15.3719V8.82645L309.699 8.13223L309.501 7.93388L308.707 8.52893L306.228 6.44628L303.451 8.52893V0.396694H303.253L299.782 2.77686V2.97521C300.178 3.17355 300.773 3.3719 300.773 4.46281L300.674 15.6694ZM318.823 14.5785L316.344 16.4628L313.864 14.4793V13.2893L318.525 10.1157V10.0165L316.145 6.44628L310.988 9.22314V15.7686L309.997 16.562L310.195 16.7603L311.087 16.0661L314.459 18.5455L318.922 14.9752L318.823 14.5785ZM313.864 12.8926V8.03306L314.063 7.93388L316.245 11.405L313.864 12.8926ZM337.765 1.58678C337.765 1.28926 337.666 0.991736 337.567 0.694215H337.368C337.071 1.4876 336.674 1.8843 335.683 1.8843C334.79 1.8843 334.195 1.38843 333.798 0.991736L330.922 4.26446L331.121 4.46281L332.112 3.57025C332.707 4.06612 333.203 4.46281 334.592 4.56198V12.7934L328.74 2.77686C328.245 1.98347 327.55 0.892562 326.162 0.892562C324.575 0.892562 323.187 2.28099 323.385 4.46281H323.683C323.782 3.86777 324.079 3.17355 324.773 3.17355C325.269 3.17355 325.765 3.66942 326.063 4.16529V7.43802C324.278 7.43802 323.087 8.23141 323.087 9.71901C323.087 10.5124 323.484 11.7025 324.674 12V11.8017C324.476 11.6033 324.377 11.405 324.377 11.1074C324.377 10.6116 324.773 10.2149 325.468 10.2149H325.964V14.3802C323.881 14.3802 322.195 15.5702 322.195 17.5537C322.195 19.438 323.782 20.3306 325.567 20.2314V20.0331C324.476 19.9339 323.98 19.438 323.98 18.7438C323.98 17.8512 324.575 17.4545 325.368 17.4545C326.162 17.4545 326.856 17.9504 327.352 18.5455L330.228 15.3719L330.03 15.1736L329.335 15.9669C328.245 14.9752 327.649 14.6777 326.36 14.4793V4.56198L334.294 18.4463H334.889V4.56198C336.377 4.46281 337.765 3.27273 337.765 1.58678ZM345.005 14.5785L342.525 16.4628L340.046 14.4793V13.2893L344.707 10.1157V10.0165L342.327 6.44628L337.17 9.22314V15.7686L336.178 16.562L336.377 16.7603L337.269 16.0661L340.641 18.5455L345.104 14.9752L345.005 14.5785ZM340.046 12.8926V8.03306L340.245 7.93388L342.426 11.405L340.046 12.8926ZM361.17 7.53719L360.476 8.03306L358.592 6.44628L356.41 8.42975L357.302 9.32231V16.7603L354.922 15.2727V9.12397L355.716 8.6281L353.435 6.44628L351.253 8.42975L352.145 9.32231V16.4628L351.848 16.6612L349.765 15.1736V9.22314C349.765 7.83471 349.071 7.43802 348.278 6.94215C347.583 6.44628 347.187 6.14876 347.187 5.45455C347.187 4.8595 347.782 4.56198 348.079 4.36364V4.16529C347.286 4.16529 345.203 4.95868 345.203 6.84298C345.203 7.83471 345.699 8.23141 346.195 8.72727C346.691 9.22314 347.187 9.61983 347.187 10.5124V16.2645L346.096 17.0579L346.294 17.2562L347.286 16.4628L349.567 18.4463L352.046 16.7603L354.823 18.4463L360.079 15.3719V8.72727L361.368 7.73554L361.17 7.53719ZM379.616 2.08264L378.625 2.97521L376.443 0.991736L373.17 3.3719V1.19008H372.873L372.972 17.2562C372.674 17.2562 371.782 17.0579 371.087 16.8595L370.889 3.47107C370.889 2.47934 370.195 1.09091 368.41 1.09091C366.625 1.09091 365.435 2.47934 365.435 3.86777H365.732C365.831 3.27273 366.129 2.77686 366.724 2.77686C367.319 2.77686 367.815 3.17355 367.815 4.46281V8.33058C366.03 8.42975 364.939 9.42149 364.939 10.7107C364.939 11.5041 365.335 12.6942 366.525 12.6942V12.4959C366.129 12.2975 366.03 12 366.03 11.8017C366.03 11.2066 366.525 11.0083 367.319 11.0083H367.716V17.157C366.228 17.6529 365.633 18.7438 365.633 19.9339C365.633 21.6198 366.922 22.8099 368.906 22.8099C370.294 22.8099 371.484 22.6116 372.674 22.314C373.666 22.1157 374.955 21.8182 375.55 21.8182C376.344 21.8182 376.641 22.2149 376.641 22.7107C376.641 23.405 376.344 23.7025 375.947 23.8017V24C377.534 23.7025 378.525 22.7107 378.525 21.2231C378.525 19.7355 377.038 18.843 375.451 18.843C374.658 18.843 372.972 19.1405 371.782 19.3388C370.393 19.6364 369.005 19.8347 368.608 19.8347C367.914 19.8347 367.121 19.5372 367.121 18.5455C367.121 17.7521 367.815 17.0579 369.501 17.0579C370.393 17.0579 371.484 17.157 372.575 17.4545C373.765 17.7521 374.856 18.0496 375.848 18.0496C377.335 18.0496 378.625 17.5537 378.625 15.4711V3.27273L379.815 2.28099L379.616 2.08264ZM375.55 8.13223C375.253 8.42975 374.856 8.72727 374.36 8.72727C373.864 8.72727 373.368 8.42975 373.17 8.13223V3.76859L374.162 3.07438L375.55 4.36364V8.13223ZM375.55 11.1074C375.352 10.9091 374.856 10.6116 374.36 10.6116C373.864 10.6116 373.368 10.9091 373.17 11.1074V8.52893C373.368 8.72727 373.864 9.02479 374.36 9.02479C374.856 9.02479 375.352 8.72727 375.55 8.52893V11.1074ZM375.55 15.7686C375.55 16.562 375.054 17.3554 373.964 17.3554H373.17V11.5041C373.368 11.3058 373.864 11.0083 374.36 11.0083C374.856 11.0083 375.253 11.3058 375.55 11.5041V15.7686ZM389.137 8.72727L385.964 6.44628L381.104 9.22314V15.6694L380.112 16.4628L380.211 16.6612L381.005 16.0661L384.178 18.4463L389.137 15.4711V8.72727ZM383.782 14.9752V7.83471L386.261 9.61983V16.6612L383.782 14.9752ZM398.559 6.64463H398.36C398.063 6.84297 397.765 7.04132 397.468 7.04132C397.071 7.04132 396.575 6.84298 396.377 6.54545H396.178L394.492 8.42975L392.806 6.54545L389.831 8.52893L389.93 8.72727L390.724 8.23141L391.716 9.32231V15.5702L390.426 16.562L390.625 16.7603L391.22 16.2645L393.6 18.2479L396.674 16.1653L396.575 15.9669L395.683 16.4628L394.492 15.4711V8.52893C394.988 9.02479 395.583 9.52066 396.278 9.52066C397.666 9.61983 398.459 8.2314 398.559 6.64463ZM410.459 16.1653L407.087 18.4463L402.526 11.5041L405.798 6.44628H405.997C406.393 6.84298 406.988 7.23967 407.683 7.23967C408.377 7.23967 408.873 6.84298 409.17 6.44628H409.368C409.269 8.42975 407.881 9.61983 406.889 9.61983C405.897 9.61983 405.402 9.12397 404.806 8.82645L404.509 9.32231L409.468 16.6612L410.459 16.0661V16.1653ZM399.55 15.6694L398.261 16.6612L398.459 16.8595L399.054 16.3636L401.236 18.3471L404.211 16.3636L404.013 16.1653L403.22 16.6612L402.228 15.6694V0.396694H402.129L398.559 2.77686V2.97521C398.955 3.17355 399.55 3.27273 399.55 4.46281V15.6694ZM426.922 2.47934C426.922 0.495868 425.038 0 423.55 0V0.297521C424.443 0.297521 425.137 0.595041 425.137 1.28926C425.137 1.68595 424.84 2.28099 423.947 2.28099C423.253 2.28099 421.765 1.8843 420.674 1.4876C419.385 1.09091 418.195 0.694215 417.203 0.694215C415.22 0.694215 413.831 2.18182 413.831 3.86777C413.831 5.35537 414.922 5.85124 415.319 6.04959L415.418 5.85124C415.121 5.65289 414.823 5.45455 414.823 4.8595C414.823 4.46281 415.22 3.76859 416.211 3.76859C417.104 3.76859 418.294 4.16529 419.881 4.66116C421.269 5.05785 422.757 5.35537 423.55 5.45455V8.52893L422.063 9.81818V9.91736L423.55 11.2066V15.4711C422.757 15.9669 421.864 16.0661 421.071 16.0661C419.583 16.0661 418.294 15.6694 417.203 14.4793L421.269 12.4959V5.55372L416.311 7.73554C416.807 6.44628 417.897 5.55372 418.889 4.8595L418.79 4.66116C415.815 5.45455 413.137 8.13223 413.137 11.5041C413.137 15.4711 416.41 18.4463 420.079 18.4463C424.046 18.4463 426.625 15.2727 426.625 12H426.426C425.831 13.2893 424.939 14.4793 423.848 15.0744V11.0083L425.435 9.71901V9.61983L423.947 8.33058V5.35537C425.435 5.35537 426.922 4.36364 426.922 2.47934ZM418.294 13.3884L417.104 13.9835C416.41 13.0909 416.013 11.9008 416.013 10.2149C416.013 9.52066 416.112 8.72727 416.311 8.13223L418.393 7.23967L418.294 13.3884ZM430.393 1.4876H430.294L428.311 3.17355V3.27273L429.997 5.15702H430.195L432.178 3.47107V3.3719L430.393 1.4876ZM433.368 16.1653L432.575 16.6612L431.583 15.6694V8.82645L432.575 8.13223L432.377 7.93388L431.683 8.52893L429.897 6.44628L427.021 8.42975L427.22 8.72727L427.914 8.23141L428.806 9.32231V15.7686L427.517 16.7603L427.616 16.9587L428.311 16.4628L430.492 18.4463L433.468 16.4628L433.368 16.1653ZM449.93 16.0661L449.236 16.562L448.145 15.5702V8.82645L449.137 8.03306L448.939 7.83471L448.145 8.52893L445.864 6.44628L442.889 8.52893L440.608 6.44628L437.831 8.52893L436.046 6.44628L433.17 8.42975L433.269 8.72727L433.964 8.23141L434.955 9.32231V15.7686L434.162 16.562L436.443 18.4463L438.625 16.4628L437.732 15.5702V8.82645L438.625 8.23141L440.112 9.61983V15.5702L439.319 16.3636L441.6 18.2479L443.782 16.2645L442.889 15.3719V8.82645L443.683 8.33058L445.269 9.71901V15.6694L444.575 16.3636L446.856 18.4463L449.93 16.3636V16.0661ZM458.559 14.5785L456.079 16.4628L453.6 14.4793V13.2893L458.261 10.1157V10.0165L455.881 6.44628L450.724 9.22314V15.9669L454.195 18.4463L458.658 14.876L458.559 14.5785ZM453.6 12.8926V8.03306L453.798 7.93388L455.98 11.405L453.6 12.8926ZM467.583 12L465.699 10.5124C466.988 9.42149 467.484 7.93388 467.484 6.94215V6.34711H467.286C467.087 6.84298 466.691 7.33884 465.897 7.33884C465.104 7.33884 464.608 6.94215 464.112 6.34711L459.649 8.82645V12.3967L461.335 13.686C459.649 15.1736 459.352 16.1653 459.352 16.9587C459.352 17.9504 459.848 18.6446 460.641 18.9421L460.74 18.7438C460.542 18.5455 460.344 18.4463 460.344 17.9504C460.344 17.6529 460.74 17.157 461.534 17.157C462.525 17.157 463.121 17.8512 463.418 18.1488L467.683 15.5702V12H467.583ZM466.492 9.02479C465.798 10.2149 464.311 11.405 463.418 12L462.327 11.1074V7.63636C462.724 8.6281 463.815 9.42149 464.906 9.42149C465.6 9.42149 465.997 9.32231 466.492 9.02479ZM464.807 16.9587C464.311 15.8678 463.121 15.0744 461.93 15.0744C461.633 15.0744 460.84 15.0744 460.046 15.5702C460.542 14.7769 461.831 13.3884 463.517 12.3967L464.707 13.3884L464.807 16.9587Z" fill="black" fill-opacity="0.5"/>
<path d="M841.301 12.5345C841.301 12.5345 840.893 12.4326 840.842 12.8403C840.842 13.0441 840.893 13.197 841.097 13.3499C841.148 13.4008 841.199 13.4008 841.25 13.4008C842.014 13.4518 842.931 12.1269 843.543 11.1077C843.798 10.6491 843.899 10.4962 844.052 10.4962C844.103 10.4962 844.307 10.4453 844.562 10.9039C844.868 11.4644 846.498 13.0951 848.537 12.6364C848.639 12.4326 848.231 12.2797 848.027 12.1269C848.027 12.1269 847.161 11.4644 848.282 11.1587C849.352 10.9039 849.912 11.3115 850.83 10.5472C850.881 10.2924 850.32 10.1905 850.32 10.1905C850.32 10.1905 849.658 9.78281 851.543 9.22228C852.46 8.96749 852.46 8.81462 852.307 8.7127C852.155 8.61079 851.696 8.40696 852.358 7.99929C853.021 7.54068 853.48 6.98014 853.429 6.77631C853.327 6.62344 853.021 6.6744 852.664 6.87823C852.257 7.08206 851.747 6.98014 851.441 6.52152C851.186 6.0629 850.881 6.16482 850.524 6.41961C850.167 6.6744 849.454 7.08206 849.097 6.41961C848.893 5.65524 848.995 5.85907 849.556 4.78896C850.116 3.76981 850.218 2.90353 850.218 2.75066C850.218 2.59778 850.116 2.49587 849.607 2.75066C849.148 2.85257 849.097 0.610434 849.097 0.304688C849.097 0.304688 849.097 -0.306804 848.74 0.202773C848.435 0.559476 847.314 1.62959 846.957 1.78246C846.6 1.88438 846.091 1.57863 846.142 1.12001C846.142 0.661392 845.836 0.814265 845.734 1.12001C845.632 1.3748 844.766 4.12651 844.562 4.27939C844.358 4.43226 844.205 4.83992 843.849 4.17747C843.492 3.51502 842.829 1.88438 842.269 2.6997C842.116 2.54683 841.097 1.17097 840.23 1.12001C840.129 1.27288 840.332 1.68054 840.485 1.78246C840.638 1.98629 840.638 2.54683 840.485 2.95449C840.332 3.36215 840.332 3.87172 840.536 4.3813C840.638 4.63609 840.485 5.04375 839.823 5.09471C839.16 5.19662 839.262 5.3495 839.568 5.75716C839.823 6.11386 840.893 6.98014 841.148 7.33684C841.403 7.64259 841.097 8.05025 840.638 8.10121C840.18 8.15217 839.721 7.9993 839.568 8.25408C839.517 8.50887 839.925 8.40696 840.078 8.66175C840.078 8.66175 840.944 10.2414 842.116 10.1905C843.288 10.0886 843.339 10.2414 843.186 10.751C843.084 11.0568 842.167 12.4326 841.301 12.5345ZM602.054 20.1272C601.596 21.6559 600.831 22.3694 599.608 22.3694H595.022C595.022 21.605 595.022 19.3119 595.073 17.2226C595.073 15.8977 595.124 13.5537 595.124 13.197H600.933V11.3115H595.124V2.19012H598.691C599.914 2.19012 600.475 2.64874 600.831 3.82077L602.003 7.79546C602.513 7.74451 602.972 7.74451 603.481 7.64259V0.967138H588.398V2.19012H590.487V22.3694H585.035V2.19012H587.379V0.967138H578.206V2.19012H580.499V11.4135H573.569V2.19012H575.862V0.967138H547.937L547.683 7.69355C548.243 7.74451 548.651 7.84642 549.211 7.84642L550.383 3.56598C550.74 2.34299 551.097 2.13916 552.473 2.13916H554.817V22.3184H551.657V23.5414H562.562V22.3184H559.352V2.13916H561.798C563.225 2.13916 563.479 2.44491 563.836 3.56598L565.008 7.84642C565.569 7.79546 565.976 7.69355 566.537 7.69355V2.13916H568.983V22.3184H566.384V23.5414H575.862V22.3184H573.569V13.0951H580.448V22.3184H578.155V23.5414H604.246L604.5 16.5602L603.023 16.3054L602.054 20.1272ZM622.234 15.6939H624.578V21.9107C623.813 22.1655 622.947 22.3694 622.081 22.3694C618.921 22.3694 616.781 20.0253 616.781 12.025C616.781 6.77631 618.106 2.08821 621.979 2.08821C624.782 2.08821 625.801 4.48322 626.82 8.30504L628.451 7.94834V1.93533C627.788 1.52767 625.648 0.661392 621.928 0.661392C615.66 0.661392 611.889 6.82727 611.889 12.6874C611.889 20.331 616.272 24 621.826 24C623.151 24 625.597 23.4904 626.973 22.9808L629.062 22.828V14.5219H622.285L622.234 15.6939ZM642.922 20.0763C642.362 21.7579 641.699 22.3694 640.426 22.3694H637.113C637.266 22.1655 637.266 19.9234 637.266 2.19012H639.763V0.967138H630.336V2.19012H632.68V22.3694H630.234V23.5923H645.114L645.623 16.3564C645.114 16.3054 644.706 16.3054 644.196 16.2035L642.922 20.0763ZM655.203 0.610434C648.681 0.610434 645.827 6.16482 645.827 12.5345C645.827 20.1782 649.7 23.949 655.203 23.949C661.726 23.949 664.63 18.3947 664.63 12.025C664.579 4.83992 661.063 0.610434 655.203 0.610434ZM655.203 22.4203C653.165 22.4203 650.668 20.6368 650.668 12.2797C650.668 4.63609 652.503 2.19012 655.203 2.19012C657.038 2.19012 659.789 3.41311 659.789 12.3307C659.739 20.382 657.496 22.4203 655.203 22.4203ZM677.676 12.025V11.8211C680.173 11.1077 682.058 8.66174 682.058 6.82727C682.058 3.20927 679.561 0.967138 674.771 0.967138H665.395V2.19012H667.79V22.3694H665.395V23.5923H674.924C679.714 23.5923 682.517 21.1464 682.517 17.6303C682.517 14.9295 680.478 12.6364 677.676 12.025ZM672.376 2.19012H674.72C676.402 2.19012 677.727 3.51502 677.727 7.18397C677.727 9.37515 676.809 11.3115 675.23 11.3115H672.376V2.19012ZM674.975 22.3694H672.682C672.376 22.3694 672.376 22.0636 672.376 21.605V12.6364H675.026C677.217 12.6364 677.879 14.7257 677.879 17.5793C677.879 21.5031 676.555 22.3694 674.975 22.3694ZM697.396 20.1272C696.938 21.6559 696.173 22.3694 695.001 22.3694H690.415C690.415 21.605 690.415 19.3119 690.466 17.2226C690.466 15.8977 690.517 13.5537 690.517 13.197H696.326V11.3115H690.517V2.19012H694.084C695.307 2.19012 695.867 2.64874 696.224 3.82077L697.396 7.79546C697.906 7.74451 698.313 7.74451 698.874 7.64259V0.967138H683.841V2.19012H685.931V22.3694H683.026V23.5923H699.587L699.842 16.6111L698.364 16.3054L697.396 20.1272ZM753.144 0.967138H737.602V2.19012C739.997 2.19012 740.404 2.80161 740.404 4.07555V15.2862C737.5 10.4962 734.646 5.75716 731.793 0.967138H725.831V2.03725C726.799 2.34299 727.512 3.0564 728.073 3.82077V20.1272C728.073 22.0636 727.054 22.3184 726.034 22.3694H724.913L718.34 0.967138H715.231C714.365 4.3813 709.422 19.7705 709.422 19.7705C708.964 21.1973 708.199 22.4203 706.721 22.4203H706.671V23.5923H713.906V22.3694H713.652C711.664 22.2165 711.053 22.1655 711.053 20.7387C711.053 20.2801 711.104 19.8215 711.206 19.159L712.378 15.0824H717.881L719.97 22.3694H717.474V23.5923H732.608V22.4203C729.805 22.3694 729.652 21.605 729.652 20.1782V6.21578C733.168 12.025 736.583 17.8341 740.099 23.5923H741.882V4.07555C741.882 2.59778 742.799 2.24108 744.43 2.19012H746.774V22.3694H744.277V23.5923H753.399C760.074 23.5923 763.896 18.3437 763.896 12.025C763.947 5.55333 759.565 0.967138 753.144 0.967138ZM712.734 13.8594L715.129 5.55333L717.524 13.8594H712.734ZM752.176 22.3694C751.615 22.3694 751.411 22.0127 751.411 21.3502V2.13916C756.201 2.13916 758.8 5.14567 758.8 12.2288C758.8 19.5667 756.762 22.3694 752.176 22.3694ZM821.376 22.3694V2.19012H823.465V0.967138H814.344V2.19012H816.484V22.3694H812.917L806.344 0.967138H803.235C802.42 4.3813 797.426 19.7705 797.426 19.7705C797.018 21.0954 796.305 22.2165 795.031 22.3694H793.248L792.025 2.19012H794.623V0.967138H787.54L783.26 12.9931C781.833 9.01845 780.355 4.94184 779.03 0.967138H771.54V2.19012C773.884 2.19012 774.037 2.54682 774.037 4.78896V5.04375C773.833 9.06941 773.374 16.5092 773.068 20.6878C773.017 21.605 772.253 22.3694 770.215 22.4713V23.5923H778.164V22.4203C775.31 22.3694 774.852 21.4012 774.852 20.6878C774.852 20.2801 774.954 17.3755 775.056 14.5219C775.209 10.5981 775.31 8.10121 775.463 4.12651V4.27939C777.4 9.6809 779.438 15.1843 781.323 20.5858L782.037 20.2291C783.922 15.1334 785.757 10.1905 787.693 5.14567L788.559 22.3184H786.368V23.5414H801.808V22.3184H801.605C799.617 22.1655 799.006 22.1146 799.006 20.6878C799.006 20.2291 799.057 19.7705 799.159 19.1081L800.331 15.0315H805.885L808.025 22.3184H805.528V23.5414H823.465V22.3184H821.376V22.3694ZM800.738 13.8594L803.133 5.55333L805.528 13.8594H800.738ZM838.549 16.2035L837.275 20.0763C836.714 21.7579 836.052 22.3694 834.778 22.3694H831.466C831.619 22.1655 831.619 19.9234 831.619 2.19012H834.116V0.967138H824.688V2.19012H827.033V22.3694H824.587V23.5923H839.466L839.976 16.3564C839.466 16.3054 839.059 16.3054 838.549 16.2035Z" fill="black" fill-opacity="0.5"/>
</svg>
