<?xml version="1.0"?>
<svg xmlns="http://www.w3.org/2000/svg" width="48" height="64" viewBox="0 0 48 64" fill="none">
<path d="M24 48.7982C23.9689 48.7586 23.9366 48.7174 23.9032 48.6747C23.4698 48.1209 22.8494 47.3126 22.1044 46.2988C20.6137 44.2703 18.627 41.4226 16.6415 38.1449C12.6452 31.548 8.75 23.362 8.75 16.6288C8.75 7.79737 15.5716 0.75 24 0.75C32.4284 0.75 39.25 7.79737 39.25 16.6288C39.25 23.362 35.3548 31.548 31.3585 38.1449C29.373 41.4226 27.3863 44.2703 25.8956 46.2988C25.1506 47.3126 24.5302 48.1209 24.0968 48.6747C24.0634 48.7174 24.0311 48.7586 24 48.7982Z" fill="white" stroke="#3B3B3E" stroke-width="1.5" stroke-miterlimit="10"/>
<path d="M24 20.7955C27.3137 20.7955 30 18.1092 30 14.7955C30 11.4818 27.3137 8.7955 24 8.7955C20.6863 8.7955 18 11.4818 18 14.7955C18 18.1092 20.6863 20.7955 24 20.7955Z" fill="#E54945"/>
<path d="M17.7383 49.5H30.4339" stroke="#3B3B3E" stroke-width="1.5" stroke-miterlimit="10" stroke-linecap="round"/>
</svg>
